<svg width="24" height="24" viewBox="0 0 24 24" fill="none" xmlns="http://www.w3.org/2000/svg">
<path d="M19.2008 10.8383V7.99828C17.8708 7.99828 16.8558 7.64328 16.2008 6.95328C15.5285 6.16581 15.1519 5.16856 15.1358 4.13328V3.92828L12.4508 3.86328C12.4508 3.86328 12.4508 3.97828 12.4508 4.13328V15.3983C12.3587 15.9016 12.1144 16.3645 11.7509 16.7245C11.3873 17.0845 10.9221 17.3244 10.418 17.4116C9.91381 17.4989 9.39503 17.4293 8.93166 17.2124C8.46828 16.9955 8.08262 16.6416 7.82674 16.1985C7.57086 15.7555 7.45707 15.2446 7.50075 14.7348C7.54443 14.225 7.74346 13.741 8.07098 13.3479C8.3985 12.9548 8.83874 12.6717 9.33226 12.5368C9.82579 12.4018 10.3488 12.4215 10.8308 12.5933V9.84328C10.5498 9.79724 10.2655 9.77383 9.98078 9.77328C8.95628 9.77328 7.95478 10.0771 7.10293 10.6463C6.25108 11.2155 5.58715 12.0245 5.19509 12.971C4.80303 13.9175 4.70044 14.959 4.90032 15.9638C5.10019 16.9687 5.59353 17.8917 6.31797 18.6161C7.04241 19.3405 7.96539 19.8339 8.97022 20.0337C9.97504 20.2336 11.0166 20.131 11.9631 19.739C12.9096 19.3469 13.7186 18.683 14.2878 17.8311C14.857 16.9793 15.1608 15.9778 15.1608 14.9533C15.1602 14.741 15.1469 14.529 15.1208 14.3183V9.74328C16.3417 10.5058 17.7622 10.887 19.2008 10.8383Z" fill="black"/>
</svg>
