<svg width="24" height="24" viewBox="0 0 24 24" fill="none" xmlns="http://www.w3.org/2000/svg">
<path fill-rule="evenodd" clip-rule="evenodd" d="M6.0732 3.99864C5.8956 3.99825 5.7244 4.01835 5.56171 4.05657C5.33869 3.56503 5.04411 3.12404 4.70906 2.78899C4.14039 2.22031 3.24351 1.99609 2.00195 1.99609V3.99609C2.7604 3.99609 3.19685 4.10521 3.29485 4.2032C3.67282 4.58117 4.00195 5.34916 4.00195 5.99609L4.012 6.13752L4.99187 12.9966C3.35231 13.0817 2.08215 14.3549 2.00318 15.9465L2.00195 16.9961C2.09877 18.64 3.36471 19.9046 4.94519 19.9945L5.17221 19.9948C5.58369 21.1607 6.69526 21.9961 8.00195 21.9961C9.30817 21.9961 10.4194 21.1613 10.8312 19.9961H13.1727C13.5845 21.1613 14.6957 21.9961 16.002 21.9961C17.6588 21.9961 19.002 20.6529 19.002 18.9961C19.002 17.3392 17.6588 15.9961 16.002 15.9961C14.6957 15.9961 13.5845 16.8309 13.1727 17.9961H10.8312C10.4194 16.8309 9.30817 15.9961 8.00195 15.9961C6.69573 15.9961 5.5845 16.8309 5.17266 17.9961H5.00195C4.49196 17.9655 4.03449 17.5085 4.00016 16.9362L4.00195 15.9961C4.02892 15.4774 4.48326 15.0231 5.05151 14.9949L7.02565 14.9954L7.03995 14.9961H17.1188L17.2664 14.9493C18.0246 14.7087 18.6316 14.1377 18.919 13.3986L19.0243 13.1901L19.3666 12.512C19.7207 11.81 20.0748 11.1069 20.4199 10.4199C21.2652 8.73717 21.7967 7.66776 21.9145 7.40515C22.519 6.05654 21.2944 5.01856 20.0427 4.99645L6.0732 3.99864ZM16.7719 12.9973H7.11531C7.0511 12.9795 7.00217 12.9251 6.99259 12.8573L6.0127 5.99805L19.8958 6.99224C19.6529 7.48763 19.2113 8.37247 18.6332 9.5234L18.6187 9.55224C18.2887 10.2092 17.9351 10.9114 17.5814 11.6124L17.2396 12.2897L17.11 12.5462L17.0612 12.6595C17.009 12.8051 16.9053 12.9247 16.7719 12.9973ZM16.001 19.998C16.5533 19.998 17.001 19.5503 17.001 18.998C17.001 18.4458 16.5533 17.998 16.001 17.998C15.4487 17.998 15.001 18.4458 15.001 18.998C15.001 19.5503 15.4487 19.998 16.001 19.998ZM9.00293 18.998C9.00293 19.5503 8.55521 19.998 8.00293 19.998C7.45064 19.998 7.00293 19.5503 7.00293 18.998C7.00293 18.4458 7.45064 17.998 8.00293 17.998C8.55521 17.998 9.00293 18.4458 9.00293 18.998Z" fill="black"/>
</svg>
