<svg width="24" height="24" viewBox="0 0 24 24" fill="none" xmlns="http://www.w3.org/2000/svg">
<path d="M16.6 14.0016C16.4 13.9016 15.1 13.3016 14.9 13.2016C14.7 13.1016 14.5 13.1016 14.3 13.3016C14.1 13.5016 13.7 14.1016 13.5 14.3016C13.4 14.5016 13.2 14.5016 13 14.4016C12.3 14.1016 11.6 13.7016 11 13.2016C10.5 12.7016 10 12.1016 9.6 11.5016C9.5 11.3016 9.6 11.1016 9.7 11.0016C9.8 10.9016 9.9 10.7016 10.1 10.6016C10.2 10.5016 10.3 10.3016 10.3 10.2016C10.4 10.1016 10.4 9.90156 10.3 9.80156C10.2 9.70156 9.7 8.50156 9.5 8.00156C9.4 7.30156 9.2 7.30156 9 7.30156C8.9 7.30156 8.7 7.30156 8.5 7.30156C8.3 7.30156 8 7.50156 7.9 7.60156C7.3 8.20156 7 8.90156 7 9.70156C7.1 10.6016 7.4 11.5016 8 12.3016C9.1 13.9016 10.5 15.2016 12.2 16.0016C12.7 16.2016 13.1 16.4016 13.6 16.5016C14.1 16.7016 14.6 16.7016 15.2 16.6016C15.9 16.5016 16.5 16.0016 16.9 15.4016C17.1 15.0016 17.1 14.6016 17 14.2016C17 14.2016 16.8 14.1016 16.6 14.0016ZM19.1 4.90156C15.2 1.00156 8.9 1.00156 5 4.90156C1.8 8.10156 1.2 13.0016 3.4 16.9016L2 22.0016L7.3 20.6016C8.8 21.4016 10.4 21.8016 12 21.8016C17.5 21.8016 21.9 17.4016 21.9 11.9016C22 9.30156 20.9 6.80156 19.1 4.90156ZM16.4 18.9016C15.1 19.7016 13.6 20.2016 12 20.2016C10.5 20.2016 9.1 19.8016 7.8 19.1016L7.5 18.9016L4.4 19.7016L5.2 16.7016L5 16.4016C2.6 12.4016 3.8 7.40156 7.7 4.90156C11.6 2.40156 16.6 3.70156 19 7.50156C21.4 11.4016 20.3 16.5016 16.4 18.9016Z" fill="black"/>
</svg>
